<svg id="Capa_1" enable-background="new 0 0 510 510" height="512" viewBox="0 0 510 510" width="512" xmlns="http://www.w3.org/2000/svg"><g><path d="m457.858 411.785-142.855-177.081v-144.704c24.814 0 45-20.187 45-45s-20.186-45-45-45h-120c-24.813 0-45 20.187-45 45s20.187 45 45 45v144.704l-142.855 177.08c-31.849 39.479-3.712 98.216 46.958 98.216h311.793c50.724 0 78.772-58.779 46.959-98.215zm-277.855-366.785c0-8.271 6.729-15 15-15h120c8.271 0 15 6.729 15 15s-6.729 15-15 15h-120c-8.271 0-15-6.729-15-15zm45 200.296v-35.296h30v-30h-30v-30h30v-30h-30v-30h60v155.296l104.634 129.704h-77.352c-11.18-34.108-56.311-81.167-57.283-82.459-1.091 1.449-45.972 47.946-57.284 82.459h-77.352zm60 144.704c0 16.542-13.458 30-30 30s-30-13.458-30-30c0-9.56 14.095-31.886 29.994-51.767 15.94 19.989 30.006 42.475 30.006 51.767zm125.896 90h-311.793c-25.535 0-39.663-29.478-23.608-49.379l20.668-25.621h100.735c15.425 59.713 100.741 59.854 116.203 0h100.735l20.669 25.621c16.035 19.876 1.955 49.379-23.609 49.379z"/><path d="m420.003 195c24.813 0 45-20.187 45-45s-20.187-45-45-45c-24.814 0-45 20.187-45 45s20.186 45 45 45zm0-60c8.271 0 15 6.729 15 15s-6.729 15-15 15c-8.272 0-15-6.729-15-15s6.728-15 15-15z"/><path d="m90.003 270c24.813 0 45-20.187 45-45s-20.187-45-45-45-45 20.187-45 45 20.187 45 45 45zm0-60c8.271 0 15 6.729 15 15s-6.729 15-15 15-15-6.729-15-15 6.729-15 15-15z"/></g></svg>