<?xml version="1.0" encoding="iso-8859-1"?>
<!-- Generator: Adobe Illustrator 19.0.0, SVG Export Plug-In . SVG Version: 6.00 Build 0)  -->
<svg version="1.1" id="Capa_1" xmlns="http://www.w3.org/2000/svg" xmlns:xlink="http://www.w3.org/1999/xlink" x="0px" y="0px"
	 viewBox="0 0 512.001 512.001" style="enable-background:new 0 0 512.001 512.001;" xml:space="preserve">
<g>
	<g>
		<path d="M454.122,180.501l55.296-81.584c2.637-3.89,3.298-8.791,1.785-13.241c-1.512-4.45-5.021-7.934-9.482-9.413l-181-60
			c-6.413-2.125-13.454,0.297-17.2,5.918l-47.52,71.279L208.482,22.18c-3.747-5.621-10.788-8.043-17.201-5.918l-181,60
			c-4.461,1.479-7.971,4.963-9.483,9.413s-0.851,9.351,1.786,13.242l55.296,81.584L2.585,262.085
			c-2.637,3.891-3.298,8.792-1.786,13.242c1.512,4.45,5.022,7.934,9.483,9.413l50.719,16.812v119.949
			c0,6.457,4.131,12.188,10.256,14.23l179.936,59.978c3.015,1.02,6.371,1.089,9.6,0.006l179.951-59.984
			c6.125-2.042,10.257-7.774,10.257-14.23V301.552l50.72-16.813c4.461-1.479,7.971-4.963,9.482-9.413
			c1.513-4.45,0.852-9.351-1.785-13.242L454.122,180.501z M322.138,48.339l151.321,50.162l-43.498,64.176l-150.586-50.195
			L322.138,48.339z M38.543,98.5l151.321-50.162l42.762,64.143L82.041,162.676L38.543,98.5z M38.544,262.501l43.497-64.176
			l150.586,50.195l-42.762,64.143C164.343,304.203,55.83,268.232,38.544,262.501z M241.001,460.689l-150-50v-99.192l100.28,33.242
			c6.372,2.112,13.43-0.261,17.201-5.918l32.519-48.778V460.689z M256.001,224.689l-132.566-44.189l132.566-44.188l132.566,44.188
			L256.001,224.689z M421.001,410.689l-150,50V290.042l32.52,48.779c3.773,5.66,10.832,8.029,17.2,5.918l100.28-33.242V410.689z
			 M322.138,312.664l-42.763-64.143l150.586-50.195l43.498,64.177C470.879,263.357,326.6,311.173,322.138,312.664z" fill="#ffffff" fill-opacity="1"/>
	</g>
</g>
<g>
</g>
<g>
</g>
<g>
</g>
<g>
</g>
<g>
</g>
<g>
</g>
<g>
</g>
<g>
</g>
<g>
</g>
<g>
</g>
<g>
</g>
<g>
</g>
<g>
</g>
<g>
</g>
<g>
</g>
</svg>
